<?xml version="1.0" standalone="no"?>
<!DOCTYPE svg PUBLIC "-//W3C//DTD SVG 20010904//EN"
 "http://www.w3.org/TR/2001/REC-SVG-20010904/DTD/svg10.dtd">
<svg version="1.0" xmlns="http://www.w3.org/2000/svg"
 width="500.000000pt" height="500.000000pt" viewBox="0 0 500.000000 500.000000"
 preserveAspectRatio="xMidYMid meet">

<g transform="translate(0.000000,500.000000) scale(0.100000,-0.100000)"
fill="#000000" stroke="none">
<path d="M2383 4662 c-7 -4 -21 -43 -32 -86 -11 -43 -21 -79 -23 -80 -9 -7
-208 -51 -217 -48 -5 2 -28 27 -51 57 -23 30 -51 57 -61 60 -12 4 -38 -4 -67
-21 -26 -14 -68 -38 -95 -53 -26 -14 -50 -33 -52 -43 -3 -9 4 -43 15 -75 12
-32 24 -65 26 -73 3 -9 -26 -46 -71 -92 l-75 -77 -72 30 c-40 16 -78 27 -84
25 -18 -7 -104 -177 -104 -205 0 -17 16 -39 52 -71 l52 -47 -18 -84 c-24 -116
-31 -124 -113 -139 -37 -6 -73 -16 -80 -22 -18 -15 -18 -224 0 -235 21 -14 81
-33 103 -33 38 0 61 -32 78 -105 9 -38 16 -77 16 -85 0 -9 -22 -38 -50 -65
-27 -27 -50 -55 -50 -63 0 -17 71 -140 98 -169 16 -17 26 -20 49 -14 32 8 35
21 53 226 9 109 18 155 39 207 7 19 8 58 2 120 -16 181 11 314 96 483 113 222
316 374 583 436 72 16 270 17 340 0 201 -47 371 -148 478 -284 194 -247 246
-504 165 -812 -5 -16 -7 -95 -5 -175 l3 -145 64 -37 c72 -43 85 -45 107 -20
32 36 98 153 98 174 0 13 -21 43 -51 74 l-52 52 18 79 c10 43 22 85 26 94 5
10 36 23 80 33 40 9 78 21 86 27 19 17 18 212 -1 232 -8 8 -44 20 -79 27 -35
6 -69 15 -75 19 -7 4 -24 50 -38 102 l-25 94 60 55 c34 30 61 61 61 69 0 19
-102 202 -115 208 -6 2 -44 -10 -85 -27 l-74 -31 -73 73 c-43 43 -73 81 -73
93 0 22 23 91 33 101 17 18 6 63 -20 82 -60 42 -162 90 -182 85 -17 -4 -53
-42 -96 -99 -14 -19 -48 -19 -130 1 -116 28 -111 24 -124 110 -6 43 -14 81
-17 86 -6 11 -234 12 -251 1z"/>
<path d="M3621 4426 c-11 -13 6 -91 150 -669 16 -66 29 -128 29 -138 0 -12 11
-24 27 -30 30 -11 34 -8 115 100 18 25 38 43 43 42 6 -2 44 -46 85 -99 41 -53
82 -98 91 -100 20 -4 153 98 157 121 2 10 -20 47 -50 85 -61 76 -98 127 -98
136 0 3 4 6 10 6 9 0 130 52 160 69 20 11 24 37 8 50 -18 16 -209 140 -228
148 -8 4 -51 30 -95 59 -184 120 -370 234 -381 234 -6 0 -17 -6 -23 -14z m150
-139 c279 -172 481 -301 472 -305 -157 -62 -168 -67 -168 -89 0 -13 34 -66 79
-124 l79 -101 -27 -26 -27 -27 -30 35 c-16 19 -55 68 -85 108 -73 94 -88 95
-151 7 -26 -35 -51 -61 -54 -57 -6 6 -68 250 -120 472 -11 47 -24 97 -28 113
-5 15 -6 27 -2 27 4 0 32 -15 62 -33z"/>
<path d="M680 4234 c-71 -13 -139 -65 -181 -139 -21 -36 -23 -53 -23 -170 0
-116 2 -135 23 -178 27 -54 67 -92 131 -120 35 -16 73 -22 170 -25 l125 -4 41
-38 c63 -58 119 -90 158 -90 50 0 59 17 47 86 -6 32 -10 58 -8 59 1 1 16 7 33
14 43 17 98 73 123 126 17 37 21 64 21 156 0 62 -5 129 -12 151 -15 50 -73
116 -129 147 -43 24 -51 25 -269 27 -124 1 -236 0 -250 -2z m471 -78 c44 -19
103 -82 118 -125 6 -19 11 -71 11 -116 0 -69 -4 -89 -27 -135 -27 -53 -44 -65
-143 -110 -11 -6 -14 -21 -12 -64 3 -37 0 -56 -8 -56 -9 0 -40 26 -128 108 -9
8 -50 12 -125 12 -62 0 -129 3 -149 6 -46 8 -114 64 -133 111 -20 47 -20 218
-1 264 17 39 64 88 104 105 42 19 449 18 493 0z"/>
<path d="M2582 4192 c-19 -13 -155 -356 -144 -367 3 -3 20 -5 38 -5 l32 0 70
175 c62 155 69 177 55 190 -16 17 -32 19 -51 7z"/>
<path d="M2204 4105 c-144 -105 -158 -118 -150 -140 4 -11 37 -40 74 -65 37
-25 86 -59 110 -77 48 -36 76 -41 90 -17 17 30 2 48 -83 104 -47 30 -83 59
-82 65 2 5 40 34 85 65 83 56 98 75 87 110 -10 33 -36 24 -131 -45z"/>
<path d="M2704 4136 c-12 -30 3 -52 71 -104 39 -30 70 -59 70 -65 0 -6 -35
-36 -77 -66 -76 -53 -88 -70 -68 -101 13 -21 45 -6 163 74 73 51 97 73 97 89
0 16 -29 44 -109 105 -109 82 -137 95 -147 68z"/>
<path d="M2905 3808 c-32 -11 -93 -53 -111 -76 -9 -12 -18 -11 -65 3 -137 43
-254 54 -339 34 -25 -6 -88 -12 -140 -13 -157 -4 -248 -48 -392 -190 -87 -86
-90 -92 -147 -271 -44 -142 -69 -298 -81 -520 -4 -71 -15 -161 -24 -200 -41
-178 -5 -383 106 -593 22 -42 48 -88 57 -102 10 -14 34 -60 54 -102 l36 -77
-45 -66 c-24 -37 -44 -73 -44 -80 0 -20 -54 -48 -245 -125 -261 -105 -419
-211 -507 -338 -42 -61 -87 -165 -94 -216 -7 -50 -1 -58 111 -135 72 -50 274
-161 292 -161 5 0 14 10 20 22 8 18 5 30 -11 56 -18 27 -27 32 -56 31 -55 -2
-57 -1 -69 32 -20 57 -15 75 28 91 34 14 39 20 44 54 5 39 -7 58 -51 83 -14 8
-13 13 2 44 9 20 23 43 32 51 14 14 18 14 46 0 29 -15 31 -15 59 12 25 24 28
32 23 66 -6 36 -5 39 29 53 57 24 75 20 91 -20 13 -31 19 -35 54 -35 34 0 40
4 55 35 19 39 30 42 87 19 42 -17 47 -28 29 -68 -10 -22 -8 -28 17 -50 31 -27
63 -33 82 -14 14 14 37 -3 58 -43 22 -43 18 -65 -16 -79 -26 -11 -30 -18 -30
-49 0 -44 6 -54 48 -75 17 -9 32 -18 32 -20 0 -15 -33 -92 -42 -97 -6 -4 -26
-5 -43 -2 -27 4 -35 1 -55 -27 -17 -23 -21 -40 -17 -65 6 -37 -7 -53 -60 -74
-36 -14 -51 -9 -62 22 -7 19 -16 21 -89 23 -75 1 -81 -1 -91 -23 -11 -25 -6
-29 69 -53 271 -87 282 -90 490 -126 118 -21 539 -24 675 -5 157 21 305 52
385 80 14 5 34 12 44 15 16 6 -19 46 -207 234 -124 125 -231 240 -236 255 -16
41 -13 104 5 142 8 18 139 155 290 304 l274 272 -24 32 c-13 18 -41 66 -63
107 -34 68 -43 77 -90 100 -30 14 -54 33 -57 45 -9 31 -7 105 2 105 16 0 42
60 42 99 0 37 2 41 25 41 39 0 97 34 139 81 40 43 76 116 116 229 53 150 16
335 -74 369 -17 7 -18 21 -20 167 -1 108 -6 169 -15 189 -8 17 -27 59 -43 95
-23 50 -27 68 -19 80 58 78 70 132 52 215 -23 101 -100 176 -208 201 -67 16
-78 16 -118 2z m-714 -212 c-12 -19 -28 -51 -35 -72 -11 -30 -15 -33 -15 -16
-1 25 22 76 47 105 24 27 25 20 3 -17z m-160 -43 c-12 -20 -14 -14 -5 12 4 9
9 14 11 11 3 -2 0 -13 -6 -23z m315 -31 c-16 -15 -25 -20 -21 -12 13 25 38 50
44 45 3 -3 -8 -18 -23 -33z m-93 13 c-3 -9 -8 -14 -10 -11 -3 3 -2 9 2 15 9
16 15 13 8 -4z m306 2 c-2 -2 -17 -11 -34 -21 l-30 -17 24 20 c13 12 28 21 34
21 6 0 8 -1 6 -3z m-521 -113 c32 -60 99 -66 242 -25 144 43 304 39 475 -10
115 -34 111 -26 107 -197 l-3 -147 42 -65 c60 -91 68 -120 70 -245 1 -129 8
-160 33 -160 21 0 28 10 51 77 23 62 102 148 138 148 76 0 117 -59 117 -167 0
-111 -67 -271 -143 -339 -32 -29 -45 -35 -75 -32 -31 2 -40 9 -54 37 l-17 35
-15 -36 c-9 -20 -18 -56 -22 -80 -10 -71 -31 -134 -60 -184 -30 -51 -138 -164
-219 -229 -28 -22 -52 -42 -55 -45 -12 -12 -117 -88 -136 -98 -13 -7 -25 -7
-30 -2 -8 8 -36 11 -84 10 -8 -1 -28 1 -45 4 -26 4 -56 8 -150 19 -11 1 -26
15 -34 30 -13 27 -12 30 26 70 48 50 63 76 63 111 0 17 12 37 33 56 l32 29
-50 -15 c-59 -18 -167 -14 -235 10 -24 8 -46 13 -49 10 -2 -2 5 -17 16 -32 14
-18 19 -37 16 -58 -6 -42 14 -114 32 -114 21 0 19 -16 -5 -40 -11 -11 -20 -26
-20 -34 0 -7 -8 -16 -19 -19 -33 -8 -94 51 -144 143 -26 47 -67 119 -90 160
-90 159 -131 306 -124 445 3 50 11 110 17 135 7 25 15 94 17 153 l4 108 32 19
c48 30 90 27 235 -16 63 -19 82 -48 82 -126 0 -63 -13 -102 -75 -228 -49 -101
-51 -122 -16 -171 l19 -25 -51 -18 c-28 -10 -61 -25 -74 -33 -28 -18 -53 -67
-53 -102 1 -24 29 -88 30 -66 0 6 10 23 23 39 l23 28 34 -19 c86 -48 147 -63
260 -63 62 0 132 6 162 14 77 20 152 47 162 57 17 15 49 10 73 -12 l22 -22 11
29 c19 48 2 86 -50 111 -83 41 -285 70 -350 50 -22 -7 -23 -7 -6 4 11 7 46 13
78 13 45 1 61 6 72 21 30 40 10 135 -29 135 -11 0 -11 -7 2 -39 24 -61 15 -71
-62 -71 -53 0 -73 -5 -105 -25 -51 -32 -68 -31 -118 5 -53 38 -54 59 -4 153
72 136 90 224 67 332 -17 82 -25 104 -25 67 0 -30 -13 -27 -28 6 -20 47 -148
95 -255 96 -54 1 -66 4 -62 16 3 8 9 35 12 60 9 77 43 193 71 244 15 27 44 63
65 80 34 27 46 31 98 30 l59 -1 -5 51 c-3 40 -3 43 3 16 5 -19 13 -44 20 -56z
m685 49 c-7 -2 -19 -2 -25 0 -7 3 -2 5 12 5 14 0 19 -2 13 -5z m292 -241 c-5
-6 -74 18 -80 27 -2 5 15 1 40 -8 24 -8 42 -17 40 -19z m-45 -139 c0 -7 -39
17 -46 28 -3 6 5 3 20 -6 14 -10 26 -19 26 -22z m-770 -953 c17 -5 72 -6 123
-3 102 6 109 -1 20 -22 -84 -21 -272 -19 -358 2 l-70 18 87 3 c77 2 89 5 110
27 l23 25 17 -21 c9 -11 31 -24 48 -29z m763 -209 c-6 -53 12 -204 29 -235 12
-23 5 -39 -76 -161 -67 -102 -280 -321 -436 -449 -52 -43 -118 -100 -147 -127
-28 -27 -56 -49 -61 -49 -6 0 -22 21 -37 48 -26 43 -81 118 -113 151 -38 40
-122 152 -141 188 -16 33 -21 60 -21 121 l0 79 58 -20 c85 -31 248 -30 317 1
28 13 61 33 75 45 14 13 45 33 70 47 129 68 275 184 397 315 48 52 89 95 90
95 1 0 -1 -22 -4 -49z"/>
<path d="M2420 2969 c-131 -27 -190 -57 -190 -98 0 -60 25 -64 160 -21 140 44
209 42 311 -10 70 -36 79 -38 79 -21 0 35 -63 114 -110 138 -36 18 -61 22
-125 22 -44 -1 -100 -5 -125 -10z"/>
<path d="M1841 2806 c-46 -16 -111 -73 -111 -97 0 -27 17 -24 58 12 l36 32 7
-27 c11 -40 28 -56 59 -56 33 0 48 16 56 58 8 38 8 38 44 12 16 -11 31 -16 34
-11 11 17 -44 70 -82 81 -45 12 -58 12 -101 -4z"/>
<path d="M2407 2807 c-42 -13 -87 -51 -87 -73 0 -19 7 -18 37 6 35 27 53 25
53 -5 0 -33 33 -65 68 -65 36 0 52 16 52 52 0 15 4 28 9 28 19 0 57 -19 78
-39 22 -21 63 -29 63 -13 0 10 -47 54 -81 76 -28 18 -116 46 -139 45 -8 0 -32
-6 -53 -12z"/>
<path d="M3162 2706 c-16 -19 -37 -54 -47 -79 -17 -45 -17 -47 4 -80 26 -43
26 -52 0 -88 -22 -31 -20 -59 4 -59 8 0 26 17 41 38 30 44 34 96 10 131 -15
21 -15 26 0 66 26 66 55 67 71 2 11 -43 25 -32 25 21 -1 87 -53 110 -108 48z"/>
<path d="M2390 2402 c0 -16 57 -60 135 -103 83 -45 95 -57 111 -108 l12 -36 1
42 c1 57 -29 89 -144 149 -49 25 -96 51 -102 56 -9 7 -13 7 -13 0z"/>
<path d="M2730 2199 c0 -6 -14 -45 -30 -86 -17 -42 -28 -78 -26 -80 11 -11 66
105 66 140 0 20 -2 37 -5 37 -3 0 -5 -5 -5 -11z"/>
<path d="M679 3397 c-9 -7 -21 -21 -27 -33 -13 -24 -5 -39 60 -113 30 -35 38
-52 38 -83 0 -59 -22 -94 -73 -111 -54 -18 -63 -14 -139 64 -32 33 -66 59 -77
59 -22 0 -61 -36 -61 -57 0 -27 43 -149 67 -190 51 -88 120 -128 238 -139 68
-6 76 -9 111 -45 43 -44 54 -47 77 -21 16 18 14 22 -34 75 l-51 57 -60 0 c-80
0 -130 16 -178 58 -45 38 -64 69 -74 122 l-6 35 49 -49 c43 -42 54 -48 92 -48
59 -1 143 42 164 83 9 17 19 62 22 99 5 64 4 72 -21 104 -14 19 -26 37 -26 40
0 15 100 -62 121 -93 21 -32 24 -48 24 -132 1 -102 5 -111 60 -173 l26 -30 20
21 21 20 -28 43 c-26 39 -29 50 -26 118 6 154 -58 241 -227 310 -62 25 -61 25
-82 9z"/>
<path d="M4082 3388 c-7 -7 -12 -29 -12 -50 0 -34 -3 -39 -42 -56 l-43 -19
-37 29 c-21 16 -42 26 -48 23 -14 -9 -104 -105 -108 -115 -2 -5 12 -26 30 -47
32 -36 33 -40 22 -73 -10 -30 -17 -36 -50 -40 -59 -9 -64 -14 -64 -84 0 -75
12 -94 64 -98 34 -3 40 -7 53 -41 15 -36 14 -38 -12 -73 -15 -19 -25 -41 -22
-48 6 -16 111 -106 123 -106 4 0 23 14 40 31 31 30 34 31 63 18 26 -12 31 -20
31 -47 0 -64 12 -72 99 -72 87 0 91 3 91 66 0 30 5 37 32 49 31 12 34 11 66
-16 18 -16 37 -29 42 -29 13 0 120 102 120 114 0 5 -11 24 -25 42 -43 56 -16
111 56 116 l44 3 3 82 3 82 -38 6 c-58 10 -58 10 -71 51 -10 34 -9 40 13 66
14 16 25 35 25 42 0 16 -98 126 -113 126 -6 0 -24 -12 -39 -27 -28 -27 -29
-27 -71 -12 -35 13 -42 21 -45 45 -7 76 -5 74 -90 74 -47 0 -83 -5 -90 -12z
m182 -241 c113 -64 145 -197 72 -306 -69 -102 -204 -122 -297 -43 -152 130
-67 371 131 372 39 0 67 -7 94 -23z"/>
<path d="M1187 3067 c-26 -24 -47 -51 -47 -62 0 -17 -85 -133 -163 -225 -12
-14 -34 -41 -49 -60 -74 -97 -71 -94 -106 -76 -67 34 -102 15 -123 -69 -14
-54 -34 -85 -55 -85 -14 0 -128 -126 -200 -221 -53 -69 -61 -105 -36 -162 32
-72 111 -112 173 -89 32 13 249 293 249 322 0 35 18 59 58 75 46 20 82 53 82
76 0 10 -14 34 -30 53 l-31 35 138 181 c75 100 149 188 164 195 27 14 69 89
69 124 0 17 -19 32 -38 31 -4 -1 -28 -20 -55 -43z m-349 -531 l46 -44 -42 -21
c-41 -21 -63 -51 -76 -103 -7 -30 -155 -231 -195 -265 -14 -13 -31 -23 -38
-23 -19 0 -73 60 -73 81 0 24 195 269 215 269 25 0 72 58 85 104 7 25 17 46
22 46 5 0 30 -20 56 -44z"/>
<path d="M1111 2779 l-22 -29 83 -87 c46 -48 95 -100 110 -115 15 -16 40 -31
56 -34 49 -10 98 -58 111 -108 6 -25 11 -58 11 -74 0 -41 -38 -92 -82 -109
-34 -14 -39 -13 -95 14 -76 37 -103 77 -103 151 0 54 -1 56 -72 136 -70 78
-107 116 -114 116 -2 0 -11 -11 -20 -25 -16 -24 -15 -26 60 -110 69 -78 76
-89 76 -128 0 -100 35 -152 127 -193 101 -45 201 -25 251 51 18 29 22 49 23
117 0 54 -5 96 -15 120 -19 44 -82 98 -114 98 -25 0 -34 8 -173 156 l-77 82
-21 -29z"/>
<path d="M1300 2417 c-13 -7 -31 -24 -39 -38 -31 -55 42 -119 104 -91 55 25
58 100 5 127 -35 18 -38 18 -70 2z m58 -65 c3 -18 -1 -22 -22 -22 -31 0 -42
16 -25 36 17 21 43 13 47 -14z"/>
<path d="M4107 2412 c-9 -4 -321 -308 -691 -675 -698 -691 -707 -701 -692
-763 8 -32 544 -567 585 -584 26 -10 37 -10 66 1 22 9 262 241 692 668 362
360 666 666 675 680 25 36 23 92 -4 127 -20 26 -74 82 -419 438 -99 101 -108
108 -150 112 -24 2 -52 0 -62 -4z m88 -113 c48 -43 45 -65 -20 -129 l-55 -54
-40 39 c-22 21 -40 46 -40 54 0 13 100 121 113 121 4 0 22 -14 42 -31z m150
-159 c38 -39 38 -40 20 -60 -61 -68 -96 -100 -107 -100 -17 0 -78 61 -78 79 0
17 99 121 115 121 6 0 28 -18 50 -40z m-327 -35 c17 -20 32 -40 32 -46 0 -14
-100 -119 -114 -119 -12 0 -86 71 -86 83 0 16 103 117 119 117 9 0 31 -16 49
-35z m464 -102 c21 -20 38 -42 38 -47 0 -13 -191 -206 -204 -206 -16 0 -76 63
-76 79 0 14 187 211 199 211 3 0 22 -17 43 -37z m-330 -40 c21 -20 38 -42 38
-47 0 -13 -101 -116 -113 -116 -14 0 -77 69 -77 84 0 13 95 116 108 116 3 0
23 -17 44 -37z m-325 -35 c18 -18 33 -40 33 -51 0 -20 -94 -117 -113 -117 -17
0 -77 62 -77 81 0 15 101 119 116 119 5 0 23 -14 41 -32z m795 -75 c21 -20 38
-42 38 -47 0 -16 -103 -116 -119 -116 -17 0 -81 59 -81 74 0 10 110 126 119
126 3 0 22 -17 43 -37z m-647 -64 c19 -17 35 -41 35 -52 0 -23 -86 -117 -107
-117 -20 0 -83 60 -83 80 0 15 100 120 114 120 3 0 21 -14 41 -31z m-333 -46
c21 -20 38 -43 38 -51 0 -13 -95 -112 -108 -112 -10 0 -82 73 -82 84 0 10 100
116 109 116 3 0 22 -17 43 -37z m571 -7 c20 -18 37 -42 37 -52 0 -19 -87 -114
-104 -114 -13 0 -86 71 -86 84 0 11 100 116 110 116 3 0 23 -15 43 -34z m232
-76 l39 -40 -59 -60 c-33 -33 -64 -60 -69 -60 -12 0 -86 71 -86 83 0 16 103
117 119 117 10 0 35 -18 56 -40z m-639 -62 c38 -42 37 -46 -17 -103 -28 -30
-57 -55 -63 -55 -14 0 -86 71 -86 86 0 6 25 34 55 63 59 56 68 57 111 9z
m-332 -37 c31 -31 36 -42 28 -57 -14 -26 -79 -84 -94 -84 -18 0 -78 62 -78 81
0 16 82 99 98 99 4 0 25 -18 46 -39z m563 -3 c18 -18 33 -39 33 -47 0 -20 -90
-111 -109 -111 -20 0 -81 60 -81 79 0 18 90 108 110 110 8 0 29 -13 47 -31z
m218 -72 c19 -19 35 -40 35 -48 0 -7 -117 -130 -260 -273 l-260 -259 -40 39
c-22 21 -40 44 -40 49 0 12 511 526 522 526 4 0 23 -15 43 -34z m-633 -63 c21
-20 38 -42 38 -47 0 -16 -93 -106 -109 -106 -21 0 -81 60 -81 81 0 18 87 108
105 109 5 0 26 -17 47 -37z m-320 -20 c21 -20 38 -44 38 -53 0 -16 -93 -110
-108 -110 -11 0 -82 71 -82 82 0 10 99 118 109 118 3 0 22 -17 43 -37z m563
-33 l39 -40 -57 -57 -57 -57 -40 39 c-22 21 -40 44 -40 49 0 14 91 106 105
106 6 0 29 -18 50 -40z m-416 -119 c23 -22 41 -43 41 -47 0 -16 -95 -104 -111
-104 -9 0 -33 16 -53 36 -28 28 -34 40 -27 53 10 17 96 101 105 101 2 0 23
-18 45 -39z m-317 -28 c21 -20 38 -42 38 -47 0 -16 -93 -106 -109 -106 -20 0
-81 60 -81 79 0 17 88 111 104 111 6 0 27 -17 48 -37z m562 -22 c31 -32 36
-42 28 -58 -12 -22 -98 -103 -109 -103 -11 0 -83 73 -83 84 0 14 102 116 115
116 6 0 28 -18 49 -39z m-416 -126 c17 -20 32 -41 32 -48 0 -16 -241 -257
-257 -257 -19 0 -83 60 -83 78 0 21 239 262 260 262 8 0 30 -16 48 -35z m-316
-22 c21 -20 38 -41 38 -45 0 -15 -82 -98 -97 -98 -17 0 -83 65 -83 82 0 15 80
98 94 98 6 0 27 -17 48 -37z m555 -25 c18 -18 33 -38 33 -45 0 -16 -76 -100
-103 -115 -16 -8 -26 -3 -58 28 -21 21 -39 42 -39 47 0 15 103 117 118 117 9
0 31 -14 49 -32z m150 -130 c18 -18 33 -39 33 -48 0 -8 -27 -42 -60 -75 l-60
-59 -40 39 c-22 21 -40 44 -40 49 0 13 111 126 124 126 6 0 25 -14 43 -32z
m-335 -55 c21 -20 38 -41 38 -46 0 -16 -153 -167 -169 -167 -20 0 -81 60 -81
80 0 16 150 170 166 170 4 0 25 -17 46 -37z m153 -138 c19 -20 35 -39 35 -43
0 -12 -164 -172 -177 -172 -22 0 -73 52 -73 74 0 23 147 176 169 176 5 0 26
-16 46 -35z"/>
<path d="M1521 999 c-82 -24 -123 -80 -122 -164 0 -53 11 -87 35 -110 87 -84
211 -78 272 13 88 129 -36 304 -185 261z"/>
</g>
</svg>
